<svg width="566" height="307" fill="none" xmlns="http://www.w3.org/2000/svg"><path d="M510.509 43.05H281.161V195.95h229.348V43.05Z" fill="#212121" stroke="#212121" stroke-miterlimit="10"/><path fill="#fff" d="M0 0h566v307H0z"/><path d="M502.859 35.399H273.51V188.3h229.349V35.399Z" fill="#fff" stroke="#212121" stroke-miterlimit="10"/><path d="M388.188 74.324H285.007v43.553h103.181V74.324Z" fill="#F5F5F5"/><path d="M288.797 53.685a3.797 3.797 0 1 0 0-7.595 3.797 3.797 0 0 0 0 7.595Z" fill="#FF0076" stroke="#212121" stroke-miterlimit="10"/><path d="M302.527 53.685a3.797 3.797 0 1 0 0-7.595 3.797 3.797 0 0 0 0 7.595Z" fill="#FF76C4" stroke="#212121" stroke-miterlimit="10"/><path d="M316.257 53.685a3.798 3.798 0 1 0 0-7.596 3.798 3.798 0 0 0 0 7.596Z" fill="#FF0076" stroke="#212121" stroke-miterlimit="10"/><path d="M313.992 130.068H291.07a6.062 6.062 0 0 0-6.063 6.059 6.062 6.062 0 0 0 6.063 6.06h22.922a6.062 6.062 0 0 0 6.063-6.06 6.062 6.062 0 0 0-6.063-6.059Z" fill="#7AF7C2" stroke="#7AF7C2" stroke-miterlimit="10"/><path d="M287.208 154.385h28.467M287.208 162.02h20.026M287.208 169.663h38.232M442.041 51.914h14.616M409.729 51.914h22.276M465.457 51.914h19.722" stroke="#212121" stroke-miterlimit="10"/><path d="M459.114 90.05h-22.267v97.867h22.267V90.049Z" fill="#FF4000"/><path d="m436.847 90.432 11.13-19.163 11.137 19.163h-22.267Z" fill="#fff" stroke="#212121" stroke-linecap="round" stroke-linejoin="round"/><path d="m442.631 80.476 5.346-9.207 5.345 9.207h-10.691Z" fill="#212121" stroke="#212121" stroke-miterlimit="10"/><path d="M451.687 90.432V188.3M444.267 90.432V188.3" stroke="#212121" stroke-miterlimit="10"/><path d="m493.117 104.346-21.972-3.63-14.384 87.202 22.538.175 13.818-83.747Z" fill="#F57CFF" stroke="#000" stroke-miterlimit="10"/><path d="m471.082 101.099 14.105-17.097 7.866 20.719-21.971-3.622Z" fill="#fff" stroke="#212121" stroke-linecap="round" stroke-linejoin="round"/><path d="m478.414 92.212 6.773-8.21 3.782 9.949-10.555-1.74Z" fill="#F57CFF" stroke="#000" stroke-miterlimit="10"/><path d="m544.68 85.949-19.706-10.077-57.299 112.046 24.668.382L544.68 85.949Z" fill="#FFA100"/><path d="m537.595 99.799-4.866-2.49M532.346 110.075l-4.875-2.49M527.088 120.35l-4.875-2.489M521.831 130.626l-4.875-2.489M516.573 140.91l-4.867-2.497M511.323 151.186l-4.874-2.489M506.066 161.462l-4.875-2.489M500.808 171.738l-4.874-2.489M495.55 182.014l-4.866-2.49" stroke="#212121" stroke-miterlimit="10"/><path d="M289.052 67.096h-51.611a8.042 8.042 0 0 0-8.042 8.042v51.611c0 4.441 3.6 8.042 8.042 8.042h51.611a8.043 8.043 0 0 0 8.042-8.042v-51.61a8.042 8.042 0 0 0-8.042-8.043Z" fill="#212121" stroke="#212121" stroke-miterlimit="10"/><path d="M241.079 80.5h32.711M241.079 88.533h17.624M241.079 96.927h22.57M241.079 104.961h13.627M256.509 112.907l7.164 4.404-7.164 4.412M248.243 121.723l-7.164-4.412 7.164-4.404" stroke="#fff" stroke-miterlimit="10"/><path d="m351.425 108.83 18.996 82.837M408.876 151.465l-9.175 35.75" stroke="#212121" stroke-miterlimit="10" stroke-dasharray="4 6"/><path d="m398.679 141.283 6.848 11.548 11.548-6.848-6.848-11.547-11.548 6.847Z" fill="#00CAFF"/><path d="M348.305 100.429a3.12 3.12 0 1 0 0-6.24 3.12 3.12 0 0 0 0 6.24Z" fill="#FF0076"/></svg>